<svg xmlns="http://www.w3.org/2000/svg" width="70" height="70" viewBox="0 0 70 70" fill="none">
  <path d="M20.433 19.146a.946.946 0 0 1-.735-1.541 18.466 18.466 0 0 1 2.055-2.154.946.946 0 1 1 1.26 1.412 16.595 16.595 0 0 0-1.844 1.932.946.946 0 0 1-.736.351ZM44.29 53.843H25.71a.946.946 0 0 1-.946-.946v-.813c0-3.943-.851-4.825-2.713-6.75a32.176 32.176 0 0 1-3.014-3.492 19.521 19.521 0 0 1-2.952-5.843.946.946 0 0 1 1.807-.56 17.673 17.673 0 0 0 2.667 5.28 30.2 30.2 0 0 0 2.853 3.3c1.935 2.003 3.216 3.332 3.244 7.932h16.687v-.643c0-4.383 1.208-5.517 3.033-7.233a23.526 23.526 0 0 0 2.865-3.094 17.71 17.71 0 0 0 3.665-10.843 17.942 17.942 0 0 0-5.969-13.35 17.75 17.75 0 0 0-13.98-4.446 17.2 17.2 0 0 0-4.188 1.003.946.946 0 0 1-.67-1.77 19.164 19.164 0 0 1 4.65-1.114A19.635 19.635 0 0 1 48.2 15.38 19.834 19.834 0 0 1 54.8 30.137a19.593 19.593 0 0 1-4.053 11.992 25.428 25.428 0 0 1-3.07 3.325c-1.672 1.573-2.437 2.29-2.437 5.854v1.59a.945.945 0 0 1-.95.945ZM16.423 27.877a.946.946 0 0 1-.933-1.105c.175-1.032.434-2.048.776-3.037a.946.946 0 1 1 1.787.62 17.38 17.38 0 0 0-.698 2.736.946.946 0 0 1-.932.786Z" fill="#c0ae98"></path>
  <path d="M46.554 59.84H23.447a1.52 1.52 0 0 1-1.514-1.514v-4.86a1.519 1.519 0 0 1 1.514-1.513h23.107a1.52 1.52 0 0 1 1.514 1.514v4.854a1.52 1.52 0 0 1-1.514 1.519Zm-22.733-1.892H46.18V53.84H23.82v4.108Z" fill="#c0ae98"></path>
  <path d="M35 68.108a8.532 8.532 0 0 1-8.523-8.523v-.692a.946.946 0 0 1 .946-.946h15.154a.946.946 0 0 1 .946.946v.692A8.532 8.532 0 0 1 35 68.108Zm-6.621-8.269a6.631 6.631 0 0 0 13.252 0H28.38ZM35 53.841a.946.946 0 0 1-.947-.946v-13.52a.946.946 0 0 1 1.892 0v13.52a.946.946 0 0 1-.946.946Z" fill="#c0ae98"></path>
  <path d="M35 40.32c-.25 0-.491-.1-.669-.276l-7.96-7.962a.947.947 0 0 1 1.337-1.34L35 38.037l7.292-7.293a.946.946 0 0 1 1.338 1.338l-7.961 7.962a.949.949 0 0 1-.669.278ZM35 5.447a.946.946 0 0 1-.947-.946V2.838a.946.946 0 0 1 1.892 0V4.5a.946.946 0 0 1-.946.946ZM14.682 13.862c-.25 0-.491-.1-.668-.277l-1.176-1.176a.947.947 0 1 1 1.337-1.341l1.176 1.176a.946.946 0 0 1-.669 1.614v.004ZM7.267 34.179H5.603a.946.946 0 0 1 0-1.892h1.664a.946.946 0 1 1 0 1.892ZM64.397 34.179h-1.664a.946.946 0 0 1 0-1.892h1.664a.946.946 0 1 1 0 1.892ZM55.317 13.862a.947.947 0 0 1-.669-1.615l1.176-1.18a.945.945 0 1 1 1.338 1.338l-1.176 1.176a.947.947 0 0 1-.669.28Z" fill="#c0ae98"></path>
</svg>
