<svg xmlns="http://www.w3.org/2000/svg" width="40" height="40" viewBox="0 0 40 40" fill="none">
  <path d="M32.97 21.07H7.03a1.683 1.683 0 0 1-1.616-2.143L10.19 2.3a1.686 1.686 0 0 1 1.615-1.219h16.391a1.687 1.687 0 0 1 1.616 1.22l4.774 16.625a1.683 1.683 0 0 1-1.616 2.143ZM11.803 2.161a.595.595 0 0 0-.576.433L6.454 19.224a.603.603 0 0 0 .576.764h25.94a.601.601 0 0 0 .575-.765L28.772 2.598a.594.594 0 0 0-.577-.436h-16.39Z" fill="#c0ae98"></path>
  <path d="M22.258 35.425h-4.515a.54.54 0 0 1-.533-.452 36.233 36.233 0 0 0-2.04-6.834c-.595-1.58-1.027-2.721-1.027-3.489a5.837 5.837 0 0 1 2.162-4.54.54.54 0 0 1 .34-.122h6.711a.54.54 0 0 1 .341.122 5.838 5.838 0 0 1 2.162 4.54c0 .768-.432 1.909-1.027 3.489a36.242 36.242 0 0 0-2.041 6.834.54.54 0 0 1-.533.452Zm-4.061-1.081h3.607a38.916 38.916 0 0 1 2.015-6.587c.514-1.361.957-2.537.957-3.107a4.757 4.757 0 0 0-1.618-3.58h-6.315a4.756 4.756 0 0 0-1.618 3.579c0 .57.443 1.745.957 3.106a38.906 38.906 0 0 1 2.015 6.589Z" fill="#c0ae98"></path>
  <path d="M27.92 38.919H12.08a.54.54 0 0 1-.54-.54 4.095 4.095 0 0 1 4.09-4.091h8.74a4.096 4.096 0 0 1 4.091 4.09.54.54 0 0 1-.54.54ZM12.67 37.838H27.33a3.015 3.015 0 0 0-2.96-2.47H15.63a3.015 3.015 0 0 0-2.961 2.47Z" fill="#c0ae98"></path>
</svg>
