<svg xmlns="http://www.w3.org/2000/svg" width="40" height="40" viewBox="0 0 40 40" fill="none">
  <path d="M21.875 37.5h-3.75a.625.625 0 0 1-.625-.625v-6.212a5.626 5.626 0 0 1 .39-10.255.625.625 0 0 1 .86.58v3.753l1.25 1.25 1.25-1.25v-3.753a.624.624 0 0 1 .86-.58 5.626 5.626 0 0 1 .39 10.255v6.212a.625.625 0 0 1-.625.625Zm-3.125-1.25h2.5v-5.991a.625.625 0 0 1 .39-.58 4.376 4.376 0 0 0 .86-7.647V25a.625.625 0 0 1-.183.442l-1.875 1.875a.625.625 0 0 1-.884 0l-1.875-1.875A.625.625 0 0 1 17.5 25v-2.968a4.377 4.377 0 0 0 .86 7.647.625.625 0 0 1 .39.58v5.991ZM35 16.875H5a.625.625 0 0 1-.412-1.095l15-13.125a.625.625 0 0 1 .824 0l15 13.125A.626.626 0 0 1 35 16.875Zm-28.337-1.25h26.674L20 3.955 6.663 15.625Z" fill="#c0ae98"></path>
  <path d="M31.875 33.75h-10a.624.624 0 1 1 0-1.25h9.375V16.875H8.75V32.5h9.375a.624.624 0 1 1 0 1.25h-10a.625.625 0 0 1-.625-.625V16.25a.625.625 0 0 1 .625-.625h23.75a.624.624 0 0 1 .625.625v16.875a.624.624 0 0 1-.625.625ZM9.375 13.05a.625.625 0 0 1-.625-.625v-8.05a.625.625 0 0 1 .625-.625h3.75a.625.625 0 0 1 .625.625v4.769a.625.625 0 1 1-1.25 0V5H10v7.425a.625.625 0 0 1-.625.625Z" fill="#c0ae98"></path>
</svg>
